<?xml version="1.0" encoding="UTF-8"?>
<svg xmlns="http://www.w3.org/2000/svg" version="1.1" viewBox="0 0 1144 768">
  <!-- Generator: Adobe Illustrator 28.7.3, SVG Export Plug-In . SVG Version: 1.2.0 Build 164)  -->
  <g>
    <g id="Calque_1">
      <g>
        <path d="M52.96,96.37h20.41v-25.19h152.02l40.4,50.82v175.47h-43l43,43-44.74,44.74-38.22-37.79v27.8h-89.47l-40.39-50.82V96.37ZM116.38,304.42l15.2,19.98h28.66l-25.19-25.19,44.74-44.74,22.58,22.58v-135.08l-15.2-19.98h-70.8v182.42Z"/>
        <path d="M320.95,96.37v-25.19h48.21v233.24l15.2,19.98h50.38V71.17h68.62v278.85h-20.41v25.19h-142.03l-40.39-50.82V96.37h20.41Z"/>
        <path d="M538.12,162.39h68.62l19.98,15.2v197.63h-48.21v-25.19h-19.98v-136.82h-20.41v-50.82ZM558.53,71.17h68.19v50.82h-68.19v-50.82Z"/>
        <path d="M52.96,646.01v-111.19l40.39-50.82h88.6v50.82h-47.77l-15.2,19.98v71.23l15.2,19.98h50.38l15.2-19.98v-208.05h20.41v-25.19h76.01v50.82h-30.4v202.4l-40.4,50.82H93.35l-40.39-50.82Z"/>
        <path d="M322.26,544.81l40.39-50.82h63.41v50.82h-22.58l-15.2,20.41v60.81l15.2,19.98h25.19l15.2-19.98v-162.44l-15.2-19.98h-106.41v-25.63h20.41v-25.19h126.4l40.82,50.82v202.4h15.2v50.82h-30.4l-20.41-25.19-20.41,25.19h-91.21l-40.39-50.82v-101.2Z"/>
        <path d="M600.24,392.78h86.44l25.19,33.01,25.19-33.01h86.44l40.39,50.82v253.22h-68.19v-233.24l-15.2-19.98h-19.11l-15.2,19.98v233.24h-68.62v-233.24l-15.2-19.98h-18.68l-15.2,19.98v233.24h-48.21v-25.19h-20.41v-228.03l40.39-50.82Z"/>
        <path d="M1091.04,443.6v60.81l-40.39,50.38h-55.59v60.81h-60.81v-86h19.98v-25.19h53.42l15.2-20.41v-20.41l-15.2-19.98h-68.62v19.98h-40.39v-70.8h152.02l40.39,50.82ZM995.05,641.23l2.61,55.6h-66.02l2.61-55.6h60.81Z"/>
      </g>
    </g>
  </g>
</svg>